<?xml version="1.0" encoding="UTF-8" standalone="no"?>
<svg
   xmlns:svg="http://www.w3.org/2000/svg"
   xmlns="http://www.w3.org/2000/svg"
   viewBox="0 0 35 35.4"
   height="35"
   width="35"
   version="1.1"><g><path
       style="fill:#fb9700"
       d="m 26.717,7.172 -15.135,21.818 19.073,0 C 33.336,25.92 34.969,21.912 34.969,17.515 34.969,7.859 27.141,0.03 17.485,0.03 12.438,0.03 7.903,2.179 4.714,5.599 l 22.002,0 0,1.573 z" /><path
       style="fill:#777777"
       d="M 9.262,29.166 24.866,7.172 3.41,7.172 C 1.277,10.071 0,13.64 0,17.517 0,27.173 7.828,35 17.486,35 c 4.46,0 8.521,-1.686 11.611,-4.438 l -19.835,0 0,-1.396 z" /><path
       style="fill:#ffffff"
       d="m 30.655,28.992 -19.073,0 15.135,-21.819 0,-1.571 -22.002,0 C 4.25,6.1 3.817,6.623 3.41,7.173 l 21.457,0 -15.605,21.993 0,1.396 19.836,0 c 0.552,-0.489 1.072,-1.013 1.557,-1.57 z" /></g></svg>